{"title":"Serial.Killers.The.Real.Silence.of.the.Lambs.HDTV.P2P4FREE","uid":8534422,"size":137288214,"categoryP":"video","categoryS":"tv_shows","magnet":"?xt=urn:btih:464748e2281c2b2d53289bb03384abd47572f98c&amp;dn=Serial.Killers.The.Real.Silence.of.the.Lambs.HDTV.P2P4FREE&amp;tr=udp%3A%2F%2Ftracker.openbittorrent.com%3A80&amp;tr=udp%3A%2F%2Fopen.demonii.com%3A1337&amp;tr=udp%3A%2F%2Ftracker.coppersurfer.tk%3A6969&amp;tr=udp%3A%2F%2Fexodus.desync.com%3A6969","seeders":1,"leechers":0,"uploader":"P2P4FREE","files":1,"time":1370228564,"description":"General\nComplete name                            : Serial.Killers.The.Real.Silence.of.the.Lambs.HDTV.P2P4FREE.mp4\nFormat                                   : MPEG-4\nFormat profile                           : Base Media / Version 2\nCodec ID                                 : mp42\nFile size                                : 131 MiB\nDuration                                 : 44mn 43s\nOverall bit rate mode                    : Variable\nOverall bit rate                         : 409 Kbps\n\nVideo\nID                                       : 1\nFormat                                   : AVC\nFormat/Info                              : Advanced Video Codec\nFormat profile                           : &lt;a class=&quot;__cf_email__&quot; href=&quot;/cdn-cgi/l/email-protection&quot; data-cfemail=&quot;9bd9fae8fef7f2f5fedbd7a8b5ab&quot;&gt;[email&amp;#160;protected]&lt;/a&gt;&lt;script cf-hash='f9e31' type=&quot;text/javascript&quot;&gt;\n/* &lt;![CDATA[ */!function(){try{var t=&quot;currentScript&quot;in document?document.currentScript:function(){for(var t=document.getElementsByTagName(&quot;script&quot;),e=t.length;e--;)if(t[e].getAttribute(&quot;cf-hash&quot;))return t[e]}();if(t&amp;&amp;t.previousSibling){var e,r,n,i,c=t.previousSibling,a=c.getAttribute(&quot;data-cfemail&quot;);if(a){for(e=&quot;&quot;,r=parseInt(a.substr(0,2),16),n=2;a.length-n;n+=2)i=parseInt(a.substr(n,2),16)^r,e+=String.fromCharCode(i);e=document.createTextNode(e),c.parentNode.replaceChild(e,c)}}}catch(u){}}();/* ]]&gt; */&lt;/script&gt;\nFormat settings, CABAC                   : No\nFormat settings, ReFrames                : 1 frame\nCodec ID                                 : avc1\nCodec ID/Info                            : Advanced Video Coding\nDuration                                 : 44mn 43s\nBit rate                                 : 311 Kbps\nMaximum bit rate                         : 1 468 Kbps\nWidth                                    : 640 pixels\nHeight                                   : 356 pixels\nDisplay aspect ratio                     : 16:9\nFrame rate mode                          : Constant\nFrame rate                               : 25.000 fps\nColor space                              : YUV\nChroma subsampling                       : 4:2:0\nBit depth                                : 8 bits\nScan type                                : Progressive\nBits/(Pixel*Frame)                       : 0.055\nStream size                              : 99.4 MiB (76%)\n\nAudio\nID                                       : 2\nFormat                                   : AAC\nFormat/Info                              : Advanced Audio Codec\nFormat profile                           : LC\nCodec ID                                 : 40\nDuration                                 : 44mn 43s\nBit rate mode                            : Variable\nBit rate                                 : 96.0 Kbps\nMaximum bit rate                         : 104 Kbps\nChannel(s)                               : 2 channels\nChannel positions                        : Front: L R\nSampling rate                            : 44.1 KHz\nCompression mode                         : Lossy\nStream size                              : 30.7 MiB (23%)\n\nSCREENS\n---------------------------------- &lt;a href=&quot;\nhttp://share.pho.to/2SBIr/original&quot; rel=&quot;nofollow&quot; target=&quot;_NEW&quot;&gt;\nhttp://share.pho.to/2SBIr/original&lt;/a&gt; &lt;a href=&quot;\nhttp://share.pho.to/2SBIs/original&quot; rel=&quot;nofollow&quot; target=&quot;_NEW&quot;&gt;\nhttp://share.pho.to/2SBIs/original&lt;/a&gt; &lt;a href=&quot;\nhttp://share.pho.to/2SBIt/original&quot; rel=&quot;nofollow&quot; target=&quot;_NEW&quot;&gt;\nhttp://share.pho.to/2SBIt/original&lt;/a&gt; &lt;a href=&quot;\nhttp://share.pho.to/2SBJ9/original&quot; rel=&quot;nofollow&quot; target=&quot;_NEW&quot;&gt;\nhttp://share.pho.to/2SBJ9/original&lt;/a&gt; &lt;a href=&quot;\nhttp://share.pho.to/2SBJD/original&quot; rel=&quot;nofollow&quot; target=&quot;_NEW&quot;&gt;\nhttp://share.pho.to/2SBJD/original&lt;/a&gt;\n----------------------------------\n\nEnjoy ;)","torrent":{"xt":"urn:btih:464748e2281c2b2d53289bb03384abd47572f98c","amp;dn":"Serial.Killers.The.Real.Silence.of.the.Lambs.HDTV.P2P4FREE","amp;tr":["udp%3A%2F%2Ftracker.openbittorrent.com%3A80","udp%3A%2F%2Fopen.demonii.com%3A1337","udp%3A%2F%2Ftracker.coppersurfer.tk%3A6969","udp%3A%2F%2Fexodus.desync.com%3A6969"],"infoHash":"464748e2281c2b2d53289bb03384abd47572f98c","infoHashBuffer":{"type":"Buffer","data":[70,71,72,226,40,28,43,45,83,40,155,176,51,132,171,212,117,114,249,140]},"announce":[],"urlList":[]}}